<svg xmlns="http://www.w3.org/2000/svg" viewBox="0 0 820 230" role="img" aria-labelledby="title desc">
  <title id="title">DBL Logo</title>
  <desc id="desc">Digital Blueprint Lab DBL wordmark</desc>
  <defs>
    <linearGradient id="dbl-blue" x1="0" y1="0" x2="1" y2="1">
      <stop offset="0" stop-color="#235BFF"/>
      <stop offset="0.52" stop-color="#1379FF"/>
      <stop offset="1" stop-color="#25C7FF"/>
    </linearGradient>
    <filter id="softShadow" x="-10%" y="-30%" width="120%" height="160%">
      <feDropShadow dx="0" dy="8" stdDeviation="8" flood-color="#041326" flood-opacity="0.16"/>
    </filter>
  </defs>
  <g filter="url(#softShadow)">
    <path fill="#06152C" d="M40 48h155c72 0 116 36 116 89s-44 89-116 89H40V48Zm55 49v80h94c38 0 62-15 62-40s-24-40-62-40H95Z"/>
    <path fill="url(#dbl-blue)" d="M302 48h205c52 0 85 25 85 66 0 18-8 34-22 45 20 10 32 28 32 52 0 47-36 75-93 75H302l39-57h161c25 0 40-10 40-27s-15-27-40-27H358v-52h139c23 0 36-9 36-25s-13-25-36-25H341L302 48Z"/>
    <path fill="#06152C" d="M632 48h57v131h126l-38 47H632V48Z"/>
    <path fill="url(#dbl-blue)" d="M764 181h56l-32 45h-56l32-45Z"/>
  </g>
</svg>
